<svg xmlns="http://www.w3.org/2000/svg" viewBox="0 0 100 100" fill="none">
  <!-- Solid IDBI Green circular background -->
  <circle cx="50" cy="50" r="50" fill="#00796B" />
  
  <!-- Central vertical body stem -->
  <path 
    d="M46.5 45C46.5 43.07 48.07 41.5 50 41.5C51.93 41.5 53.5 43.07 53.5 45V73.5C53.5 75.43 51.93 77 50 77C48.07 77 46.5 75.43 46.5 73.5V45Z" 
    fill="#FFFFFF" 
  />
  
  <!-- Head dot above stem -->
  <circle cx="50" cy="31" r="5.5" fill="#FFFFFF" />
  
  <!-- Inner Left Crescent Wing -->
  <path 
    d="M33 46C33 36 40 33 44 33.5C38 39 38 56 46.5 72C38.5 70 33 60 33 46Z" 
    fill="#FFFFFF" 
  />
  
  <!-- Outer Left Crescent Wing -->
  <path 
    d="M26 49C26 35 36.5 30 41 30.5C34 37 34 59.5 44 76C33 73.5 26 62.5 26 49Z" 
    fill="#FFFFFF" 
  />
  
  <!-- Inner Right Crescent Wing -->
  <path 
    d="M67 46C67 36 60 33 56 33.5C62 39 62 56 53.5 72C61.5 70 67 60 67 46Z" 
    fill="#FFFFFF" 
  />
  
  <!-- Outer Right Crescent Wing -->
  <path 
    d="M74 49C74 35 63.5 30 59 30.5C66 37 66 59.5 56 76C67 73.5 74 62.5 74 49Z" 
    fill="#FFFFFF" 
  />
</svg>